<mxfile host="app.diagrams.net">
  <diagram name="Number Guessing Game" id="gameFlow">
    <mxGraphModel dx="600" dy="600" grid="1" gridSize="10" guides="1" tooltips="1" connect="1" arrows="1" fold="1" page="1" pageScale="1" pageWidth="827" pageHeight="1169" math="0" shadow="0">
      <root>
        <mxCell id="0"/>
        <mxCell id="1" parent="0"/>

        <!-- Start Node -->
        <mxCell id="2" value="Start" style="ellipse;whiteSpace=wrap;html=1;aspect=fixed;" vertex="1" parent="1">
          <mxGeometry x="60" y="60" width="80" height="40" as="geometry"/>
        </mxCell>

        <!-- Initialize Variables -->
        <mxCell id="3" value="Initialize Variables" style="rounded=1;whiteSpace=wrap;html=1;" vertex="1" parent="1">
          <mxGeometry x="60" y="160" width="160" height="60" as="geometry"/>
        </mxCell>

        <!-- Prompt User for Guess -->
        <mxCell id="4" value="Prompt User for Guess" style="rounded=1;whiteSpace=wrap;html=1;" vertex="1" parent="1">
          <mxGeometry x="60" y="260" width="160" height="60" as="geometry"/>
        </mxCell>

        <!-- Check Guess -->
        <mxCell id="5" value="Check Guess" style="diamond;whiteSpace=wrap;html=1;" vertex="1" parent="1">
          <mxGeometry x="60" y="360" width="100" height="60" as="geometry"/>
        </mxCell>

        <!-- Too Low -->
        <mxCell id="6" value="Too Low" style="rounded=1;whiteSpace=wrap;html=1;" vertex="1" parent="1">
          <mxGeometry x="260" y="360" width="100" height="60" as="geometry"/>
        </mxCell>

        <!-- Too High -->
        <mxCell id="7" value="Too High" style="rounded=1;whiteSpace=wrap;html=1;" vertex="1" parent="1">
          <mxGeometry x="260" y="460" width="100" height="60" as="geometry"/>
        </mxCell>

        <!-- Correct Guess -->
        <mxCell id="8" value="Correct Guess" style="rounded=1;whiteSpace=wrap;html=1;" vertex="1" parent="1">
          <mxGeometry x="60" y="460" width="160" height="60" as="geometry"/>
        </mxCell>

        <!-- End Node -->
        <mxCell id="9" value="End" style="ellipse;whiteSpace=wrap;html=1;aspect=fixed;" vertex="1" parent="1">
          <mxGeometry x="60" y="560" width="80" height="40" as="geometry"/>
        </mxCell>

        <!-- Connecting Lines -->
        <mxCell id="10" edge="1" source="2" target="3" parent="1">
          <mxGeometry relative="1" as="geometry"/>
        </mxCell>
        <mxCell id="11" edge="1" source="3" target="4" parent="1">
          <mxGeometry relative="1" as="geometry"/>
        </mxCell>
        <mxCell id="12" edge="1" source="4" target="5" parent="1">
          <mxGeometry relative="1" as="geometry"/>
        </mxCell>
        <mxCell id="13" edge="1" source="5" target="6" parent="1">
          <mxGeometry relative="1" as="geometry"/>
        </mxCell>
        <mxCell id="14" edge="1" source="5" target="7" parent="1">
          <mxGeometry relative="1" as="geometry"/>
        </mxCell>
        <mxCell id="15" edge="1" source="5" target="8" parent="1">
          <mxGeometry relative="1" as="geometry"/>
        </mxCell>
        <mxCell id="16" edge="1" source="8" target="9" parent="1">
          <mxGeometry relative="1" as="geometry"/>
        </mxCell>
      </root>
    </mxGraphModel>
  </diagram>
</mxfile>
